<?xml version="1.0" standalone="no"?><!DOCTYPE svg PUBLIC "-//W3C//DTD SVG 1.1//EN" "http://www.w3.org/Graphics/SVG/1.1/DTD/svg11.dtd"><svg t="1533189348831" class="icon" style="" viewBox="0 0 1072 1024" version="1.1" xmlns="http://www.w3.org/2000/svg" p-id="2877" xmlns:xlink="http://www.w3.org/1999/xlink" width="67" height="64"><defs><style type="text/css"></style></defs><path d="M136.533333 999.619048c-24.380952 0-48.761905-4.87619-73.142857-9.752381-9.752381-4.87619-14.628571-14.628571-19.504762-19.504762 0-9.752381 0-19.504762 9.752381-24.380953 97.52381-73.142857 107.27619-126.780952 112.152381-146.285714 0-14.628571-4.87619-24.380952-9.752381-29.257143C73.142857 687.542857 24.380952 580.266667 24.380952 472.990476 24.380952 224.304762 253.561905 24.380952 536.380952 24.380952s512 199.92381 512 448.609524-229.180952 448.609524-512 448.609524c-43.885714 0-87.771429-4.87619-126.780952-14.628571-4.87619 0-39.009524 14.628571-63.390476 29.257142-53.638095 24.380952-126.780952 63.390476-209.676191 63.390477z m-14.628571-48.761905c73.142857 4.87619 146.285714-34.133333 199.923809-63.390476 43.885714-24.380952 73.142857-39.009524 97.52381-29.257143 39.009524 9.752381 78.019048 14.628571 117.028571 14.628571 253.561905 0 463.238095-180.419048 463.238096-399.847619S789.942857 73.142857 536.380952 73.142857 73.142857 253.561905 73.142857 472.990476c0 97.52381 39.009524 190.171429 117.028572 263.314286 19.504762 14.628571 24.380952 39.009524 24.380952 68.266667-4.87619 34.133333-19.504762 82.895238-92.647619 146.285714z" fill="#1296db" p-id="2878"></path><path d="M643.657143 453.485714c4.87619 29.257143 4.87619 39.009524 14.628571 48.761905 0 0 4.87619 0 4.876191 4.876191v4.87619c-9.752381 24.380952-14.628571 29.257143-121.904762 29.257143-73.142857 0-78.019048-4.87619-82.895238-4.876191-48.761905 24.380952-97.52381 39.009524-136.533334 48.761905v-4.87619c39.009524-14.628571 92.647619-39.009524 131.657143-58.514286V438.857143v-39.009524l34.133334 19.504762v4.87619l-14.628572 9.752381v68.266667c68.266667-39.009524 121.904762-82.895238 160.914286-126.780952l24.380952 19.504762v4.87619h-4.87619c-9.752381 0-19.504762 4.87619-29.257143 9.752381-39.009524 43.885714-92.647619 78.019048-146.285714 107.27619H594.895238c39.009524 0 39.009524-4.87619 39.009524-63.390476h9.752381z m107.27619-102.4c0 4.87619 4.87619 4.87619 4.876191 4.876191s0 4.87619-4.876191 4.87619c-14.628571 0-29.257143 9.752381-58.514285 43.885715l-4.876191-4.876191 24.380953-48.761905H385.219048c0 34.133333-14.628571 58.514286-39.009524 58.514286-4.87619 0-14.628571 0-14.628572-9.752381 0-4.87619 4.87619-9.752381 14.628572-19.504762 14.628571-14.628571 24.380952-24.380952 39.009524-68.266667H390.095238v24.380953h316.952381l14.628571-14.628572 29.257143 29.257143zM399.847619 419.352381c0 39.009524-9.752381 82.895238-43.885714 82.895238-9.752381 0-14.628571-4.87619-14.628572-9.752381s4.87619-14.628571 9.752381-14.628571c24.380952-4.87619 39.009524-29.257143 43.885715-58.514286h4.87619z m297.447619 165.790476c4.87619 4.87619 4.87619 4.87619 0 0 4.87619 4.87619 4.87619 4.87619 0 9.752381l-9.752381 9.752381v102.4c0 4.87619-19.504762 14.628571-19.504762 14.628571s-4.87619 0-4.87619-4.87619V682.666667H424.228571l-9.752381 14.628571h-4.87619-4.87619l-29.257143-14.628571 19.504762-14.628572v-58.514285-34.133334l34.133333 19.504762c4.87619 0 4.87619 4.87619 4.87619 4.876191l-14.628571 9.752381v68.266666h112.152381V585.142857v-34.133333l34.133333 19.504762 4.876191 4.87619v4.876191l-14.628572 9.752381v97.523809h112.152381v-63.390476-39.009524h29.257143z m-190.171428-316.952381c43.885714 14.628571 63.390476 29.257143 63.390476 43.885714 0 9.752381-9.752381 24.380952-14.628572 24.380953-9.752381 0-9.752381 0-14.628571-9.752381-4.87619-14.628571-14.628571-34.133333-39.009524-53.638095l4.876191-4.876191z m0 92.647619c24.380952 9.752381 48.761905 29.257143 48.761904 43.885715 0 9.752381-9.752381 24.380952-14.628571 24.380952-4.87619 0-4.87619 0-9.752381-14.628572-4.87619-19.504762-9.752381-29.257143-24.380952-53.638095z m156.038095 63.390476c29.257143 14.628571 73.142857 39.009524 73.142857 63.390477 0 9.752381-9.752381 19.504762-9.752381 19.504762-4.87619 0-9.752381 0-14.628571-14.628572-9.752381-14.628571-24.380952-43.885714-48.761905-68.266667z" fill="#1296db" p-id="2879"></path></svg>