<?xml version="1.0" standalone="no"?><!DOCTYPE svg PUBLIC "-//W3C//DTD SVG 1.1//EN" "http://www.w3.org/Graphics/SVG/1.1/DTD/svg11.dtd"><svg t="1533190862644" class="icon" style="" viewBox="0 0 1024 1024" version="1.1" xmlns="http://www.w3.org/2000/svg" p-id="3568" xmlns:xlink="http://www.w3.org/1999/xlink" width="64" height="64"><defs><style type="text/css"></style></defs><path d="M954.484 542.804h-884.284c-19.021 0-34.454-15.452-34.454-34.479 0-19.026 15.435-34.466 34.454-34.466h884.284c19.014 0 34.454 15.44 34.454 34.466 0 19.027-15.44 34.479-34.454 34.479M908.551 340.912c-19.014 0-34.454-15.427-34.454-34.479v-149.371h-149.297c-19.013 0-34.453-15.445-34.453-34.473 0-19.027 15.441-34.473 34.453-34.473h183.75c19.014 0 34.454 15.445 34.454 34.473v183.843c0 19.053-15.44 34.479-34.454 34.479M299.885 157.061h-149.297v149.371c0 19.052-15.435 34.479-34.454 34.479-19.013 0-34.453-15.427-34.453-34.479v-183.842c0-19.027 15.44-34.473 34.453-34.473h183.75c19.014 0 34.454 15.445 34.454 34.473 0 19.026-15.44 34.471-34.454 34.471M116.134 680.682c19.021 0 34.454 15.453 34.454 34.479v149.371h149.296c19.014 0 34.454 15.441 34.454 34.479 0 19.026-15.44 34.466-34.454 34.466h-183.749c-19.013 0-34.453-15.441-34.453-34.466v-183.851c0-19.026 15.44-34.479 34.453-34.479M724.8 864.531h149.296v-149.371c0-19.026 15.441-34.479 34.454-34.479s34.454 15.453 34.454 34.479v183.851c0 19.026-15.441 34.466-34.454 34.466h-183.749c-19.013 0-34.453-15.441-34.453-34.466-0.001-19.040 15.44-34.479 34.453-34.479z" p-id="3569" fill="#1296db"></path></svg>