<?xml version="1.0" standalone="no"?><!DOCTYPE svg PUBLIC "-//W3C//DTD SVG 1.1//EN" "http://www.w3.org/Graphics/SVG/1.1/DTD/svg11.dtd"><svg t="1533190969240" class="icon" style="" viewBox="0 0 1024 1024" version="1.1" xmlns="http://www.w3.org/2000/svg" p-id="4610" xmlns:xlink="http://www.w3.org/1999/xlink" width="64" height="64"><defs><style type="text/css"></style></defs><path d="M270.054902 971.796078l2.007843-219.858823C124.486275 719.811765 20.078431 590.305882 20.078431 438.713725v-42.164705c0-176.690196 144.564706-321.254902 321.254902-321.254902h343.341177c176.690196 0 321.254902 144.564706 321.254902 321.254902v42.164705c0 176.690196-144.564706 321.254902-321.254902 321.254902H521.035294l-250.980392 211.827451z m71.278431-853.333333c-153.6 0-278.086275 124.486275-278.086274 278.086275v42.164705C63.247059 575.247059 160.627451 690.698039 296.156863 712.784314l18.070588 3.011764 1.003922 19.07451-1.003922 143.560785 191.74902-161.631373h179.70196C839.278431 716.8 963.764706 592.313725 963.764706 438.713725v-42.164705c0-153.6-124.486275-278.086275-278.086275-278.086275H341.333333z" fill="#4AA2FF" p-id="4611"></path><path d="M336.313725 428.67451c0-17.066667 13.05098-31.121569 30.117648-31.121569s30.117647 14.054902 30.117647 31.121569c0 18.070588-13.05098 30.117647-30.117647 30.117647-19.07451-1.003922-30.117647-13.05098-30.117648-30.117647z" fill="#4AA2FF" p-id="4612"></path><path d="M366.431373 479.87451c-30.117647-1.003922-51.2-22.086275-51.2-52.203922 0-29.113725 23.090196-52.203922 51.2-52.203921 29.113725 0 52.203922 23.090196 52.203921 52.203921 0 30.117647-23.090196 52.203922-52.203921 52.203922z m0-61.239216c-5.019608 0-8.031373 5.019608-8.031373 9.035294 0 6.023529 2.007843 8.031373 8.031373 9.035294 8.031373 0 8.031373-5.019608 8.031372-9.035294 1.003922-4.015686-2.007843-9.035294-8.031372-9.035294zM496.941176 428.67451c0-17.066667 13.05098-31.121569 30.117648-31.121569s30.117647 14.054902 30.117647 31.121569c0 18.070588-13.05098 30.117647-30.117647 30.117647-19.07451-1.003922-30.117647-13.05098-30.117648-30.117647z" fill="#4AA2FF" p-id="4613"></path><path d="M527.058824 479.87451c-30.117647-1.003922-51.2-22.086275-51.2-52.203922 0-29.113725 23.090196-52.203922 51.2-52.203921 29.113725 0 52.203922 23.090196 52.203921 52.203921-1.003922 30.117647-23.090196 52.203922-52.203921 52.203922z m0-61.239216c-5.019608 0-8.031373 5.019608-8.031373 9.035294 0 6.023529 2.007843 8.031373 8.031373 9.035294 8.031373 0 8.031373-5.019608 8.031372-9.035294 1.003922-4.015686-2.007843-9.035294-8.031372-9.035294zM657.568627 428.67451c0-17.066667 13.05098-31.121569 30.117648-31.121569s30.117647 14.054902 30.117647 31.121569c0 18.070588-13.05098 30.117647-30.117647 30.117647-19.07451-1.003922-30.117647-13.05098-30.117648-30.117647z" fill="#4AA2FF" p-id="4614"></path><path d="M687.686275 479.87451c-30.117647-1.003922-51.2-22.086275-51.2-52.203922 0-29.113725 23.090196-52.203922 51.2-52.203921 29.113725 0 52.203922 23.090196 52.203921 52.203921-1.003922 30.117647-23.090196 52.203922-52.203921 52.203922z m0-61.239216c-5.019608 0-8.031373 5.019608-8.031373 9.035294 0 6.023529 2.007843 8.031373 8.031373 9.035294 8.031373 0 8.031373-5.019608 8.031372-9.035294s-3.011765-9.035294-8.031372-9.035294z" fill="#4AA2FF" p-id="4615"></path></svg>