<?xml version="1.0" standalone="no"?><!DOCTYPE svg PUBLIC "-//W3C//DTD SVG 1.1//EN" "http://www.w3.org/Graphics/SVG/1.1/DTD/svg11.dtd"><svg t="1533191032840" class="icon" style="" viewBox="0 0 1112 1024" version="1.1" xmlns="http://www.w3.org/2000/svg" p-id="5865" xmlns:xlink="http://www.w3.org/1999/xlink" width="69.5" height="64"><defs><style type="text/css"></style></defs><path d="M826.147914 652.8H920.014581V746.666667h34.133333v-93.866667H1048.014581v-38.4h-93.866667v-89.6H920.014581v89.6h-93.866667z" p-id="5866" fill="#1296db"></path><path d="M992.547914 1024H75.214581l-55.466667-38.4-8.533333-12.8c-12.8-29.866667-12.8-64-4.266667-98.133333v-4.266667l8.533334-12.8c29.866667-38.4 106.666667-81.066667 187.733333-128 149.333333-81.066667 166.4-106.666667 166.4-115.2v-21.333333c-68.266667-72.533333-106.666667-166.4-106.666667-264.533334 0-89.6 0-328.533333 268.8-328.533333 238.933333 0 268.8 179.2 268.8 332.8 0 98.133333-38.4 192-106.666666 264.533333v21.333334c4.266667 17.066667 85.333333 64 128 89.6 17.066667 8.533333 29.866667 17.066667 42.666666 25.6 81.066667 42.666667 157.866667 85.333333 187.733334 128l8.533333 8.533333v8.533333c8.533333 29.866667 8.533333 59.733333 0 93.866667l-4.266667 12.8c-4.266667 8.533333-17.066667 12.8-29.866666 8.533333-8.533333-4.266667-12.8-17.066667-8.533334-29.866666l4.266667-8.533334c4.266667-21.333333 4.266667-46.933333 0-68.266666v-4.266667c-29.866667-38.4-106.666667-76.8-179.2-119.466667-12.8-8.533333-29.866667-17.066667-42.666667-25.6-98.133333-59.733333-145.066667-93.866667-145.066666-123.733333V576l4.266666-4.266667c64-64 102.4-149.333333 102.4-238.933333 0-149.333333-25.6-290.133333-226.133333-290.133333S309.881248 179.2 309.881248 328.533333c0 89.6 34.133333 174.933333 102.4 238.933334l4.266666 8.533333v38.4c0 34.133333-55.466667 76.8-192 149.333333-72.533333 42.666667-149.333333 81.066667-174.933333 119.466667-8.533333 25.6-8.533333 51.2 0 72.533333l38.4 25.6h908.8c12.8 0 21.333333 8.533333 21.333333 21.333334s-12.8 21.333333-25.6 21.333333z" p-id="5867" fill="#1296db"></path></svg>