<?xml version="1.0" standalone="no"?><!DOCTYPE svg PUBLIC "-//W3C//DTD SVG 1.1//EN" "http://www.w3.org/Graphics/SVG/1.1/DTD/svg11.dtd"><svg t="1533193044005" class="icon" style="" viewBox="0 0 1024 1024" version="1.1" xmlns="http://www.w3.org/2000/svg" p-id="6563" xmlns:xlink="http://www.w3.org/1999/xlink" width="64" height="64"><defs><style type="text/css"></style></defs><path d="M948.857091 912.014486L700.290899 663.47797c54.840002-63.587224 89.220021-145.30948 89.220021-235.808634 0-200.236464-162.310689-362.5185-362.548177-362.5185-200.23544 0-362.547153 162.282037-362.547153 362.5185s162.310689 362.5185 362.547153 362.518501c90.499154 0 172.220387-34.351366 235.750306-89.220021L911.308917 949.563684c10.375302 10.403954 27.172873 10.403954 37.547151 0s10.376325-27.201525 0.001023-37.549198zM426.963767 734.447325c-169.429831 0-306.776965-137.346111-306.776966-306.776966 0-169.372525 137.347135-306.777989 306.776966-306.777988 169.402201 0 306.777989 137.40444 306.777988 306.777988-0.001023 169.430854-137.375787 306.776965-306.777988 306.776966z m0 0" p-id="6564" fill="#bfbfbf"></path></svg>