<?xml version="1.0" standalone="no"?><!DOCTYPE svg PUBLIC "-//W3C//DTD SVG 1.1//EN" "http://www.w3.org/Graphics/SVG/1.1/DTD/svg11.dtd"><svg t="1533193571930" class="icon" style="" viewBox="0 0 1024 1024" version="1.1" xmlns="http://www.w3.org/2000/svg" p-id="7132" xmlns:xlink="http://www.w3.org/1999/xlink" width="64" height="64"><defs><style type="text/css"></style></defs><path d="M417.478743 795.568925a397.784462 397.784462 0 1 1 389.434927-397.784463 394.161079 394.161079 0 0 1-389.434927 397.784463z m0-716.169571A318.385108 318.385108 0 1 0 729.0897 397.784462a315.352494 315.352494 0 0 0-311.610957-318.266954zM973.549913 1023.999606a38.43937 38.43937 0 0 1-27.56922-11.81538L634.566659 694.035425a40.4086 40.4086 0 0 1 0-56.280593 38.399985 38.399985 0 0 1 55.13844 0l311.571573 318.306339a40.4086 40.4086 0 0 1 0 56.280593 38.43937 38.43937 0 0 1-27.726759 11.657842z" fill="#8a8a8a" p-id="7133"></path></svg>