<?xml version="1.0" standalone="no"?><!DOCTYPE svg PUBLIC "-//W3C//DTD SVG 1.1//EN" "http://www.w3.org/Graphics/SVG/1.1/DTD/svg11.dtd"><svg t="1533200680880" class="icon" style="" viewBox="0 0 1210 1024" version="1.1" xmlns="http://www.w3.org/2000/svg" p-id="11387" xmlns:xlink="http://www.w3.org/1999/xlink" width="75.625" height="64"><defs><style type="text/css"></style></defs><path d="M639.092199 554.364066c45.995272-60.520095 101.673759-133.144208 101.673758-220.293144 0-147.669031-101.673759-275.971631-227.555555-275.971631s-227.555556 121.040189-227.555556 275.971631c0 79.886525 33.891253 140.406619 94.411348 215.451537 106.515366 152.510638-242.080378 167.035461-290.496454 273.550827-14.524823 33.891253-19.36643 60.520095-19.36643 87.148936v14.524823l7.262411 7.262411h856.964539s7.262411 0 7.262411-7.262411v-14.524823c14.524823-26.628842 7.262411-53.257683 0-72.624113-53.257683-116.198582-450.269504-108.93617-302.600472-283.234043z" fill="#ffffff" p-id="11388"></path><path d="M1096.624113 459.952719h-113.777777v-113.777778c0-14.524823-14.524823-26.628842-26.628842-26.628842s-26.628842 14.524823-26.628842 26.628842V459.952719h-113.777777c-14.524823 0-26.628842 14.524823-26.628842 26.628841s14.524823 26.628842 26.628842 26.628842h113.777777V629.408983c0 14.524823 14.524823 26.628842 26.628842 26.628842s26.628842-14.524823 26.628842-26.628842v-113.777777h113.777777c14.524823 0 26.628842-14.524823 26.628842-26.628842s-14.524823-29.049645-26.628842-29.049645z" fill="#ffffff" p-id="11389"></path></svg>