<?xml version="1.0" standalone="no"?><!DOCTYPE svg PUBLIC "-//W3C//DTD SVG 1.1//EN" "http://www.w3.org/Graphics/SVG/1.1/DTD/svg11.dtd"><svg t="1533207593988" class="icon" style="" viewBox="0 0 1024 1024" version="1.1" xmlns="http://www.w3.org/2000/svg" p-id="19620" xmlns:xlink="http://www.w3.org/1999/xlink" width="32" height="32"><defs><style type="text/css"></style></defs><path d="M879.6 925.9H144.3C64.7 925.9 0 862 0 783.5v-543C0 162 64.7 98.1 144.3 98.1h735.3c79.6 0 144.4 63.9 144.4 142.4v543c0 78.5-64.8 142.4-144.4 142.4zM144.3 141.6c-55.6 0-100.8 44.4-100.8 98.9v543c0 54.5 45.2 98.9 100.8 98.9h735.3c55.6 0 100.8-44.4 100.8-98.9v-543c0-54.5-45.2-98.9-100.8-98.9H144.3zM512 570.7L88.5 213.3l28.1-33.3L512 513.7 907.4 180l28.1 33.3L512 570.7z" fill="#d81e06" p-id="19621"></path></svg>