<?xml version="1.0" standalone="no"?><!DOCTYPE svg PUBLIC "-//W3C//DTD SVG 1.1//EN" "http://www.w3.org/Graphics/SVG/1.1/DTD/svg11.dtd"><svg t="1533208244532" class="icon" style="" viewBox="0 0 1024 1024" version="1.1" xmlns="http://www.w3.org/2000/svg" p-id="20662" xmlns:xlink="http://www.w3.org/1999/xlink" width="32" height="32"><defs><style type="text/css"></style></defs><path d="M828.736 279.936v-21.952c0-67.776-57.088-124.288-125.376-124.288H377.408l-2.752-4.224-28.992-41.664C324.928 57.856 283.968 36.16 251.776 36.16H58.048c-31.936 0-58.048 21.696-58.048 51.648v692.224l106.24-383.168c17.792-63.872 98.24-116.992 176.96-116.992h545.536z m-508.416 48.704c-70.272 0-141.888 44.864-157.696 98.688l-135.04 460.736c-15.808 53.824 29.504 98.624 99.712 98.624h600.512c70.336 0 141.888-44.8 157.76-98.624l134.976-460.736c15.872-53.824-29.44-98.688-99.712-98.688H320.32z m118.4 450.176V621.056h-63.808c-27.584-15.04 8.96-41.856 8.96-41.856s118.72-97.472 134.08-103.552c24.32-17.6 35.072 0 35.072 0s137.28 99.84 150.4 116.48c6.4 26.56-2.624 28.992-2.624 28.992H633.728v159.872c0 20.48-17.984 35.2-39.488 35.2h-119.04a36.48 36.48 0 0 1-36.48-37.376z m0 0" fill="#ffffff" p-id="20663"></path></svg>