<?xml version="1.0" standalone="no"?><!DOCTYPE svg PUBLIC "-//W3C//DTD SVG 1.1//EN" "http://www.w3.org/Graphics/SVG/1.1/DTD/svg11.dtd"><svg t="1533208878717" class="icon" style="" viewBox="0 0 1024 1024" version="1.1" xmlns="http://www.w3.org/2000/svg" p-id="23527" xmlns:xlink="http://www.w3.org/1999/xlink" width="32" height="32"><defs><style type="text/css"></style></defs><path d="M515.011765 6.023529c-277.082353 0-501.960784 224.878431-501.960785 501.960785s224.878431 501.960784 501.960785 501.960784 501.960784-224.878431 501.960784-501.960784-224.878431-501.960784-501.960784-501.960785zM381.490196 319.247059c13.05098-20.078431 31.121569-35.137255 52.203922-45.176471 12.047059-6.023529 24.094118-9.035294 37.145098-10.039215 14.054902-2.007843 28.109804 1.003922 41.160784 7.027451 37.145098 17.066667 61.239216 45.176471 73.286275 83.32549 9.035294 30.117647 6.023529 59.231373-11.043138 86.337255-15.058824 25.098039-35.137255 43.168627-61.239215 55.215686-20.078431 9.035294-40.156863 11.043137-61.239216 5.019608-33.129412-9.035294-60.235294-28.109804-77.301961-59.231373-10.039216-17.066667-14.054902-36.141176-14.054902-55.215686 0-24.094118 7.027451-47.184314 21.082353-67.262745z m102.4 350.368627c1.003922 9.035294 3.011765 19.07451 5.019608 28.109804 0 2.007843 1.003922 4.015686 1.003921 6.02353 0 5.019608-2.007843 9.035294-8.031372 10.039215-4.015686 1.003922-9.035294 1.003922-14.054902 1.003922-21.082353 1.003922-42.164706-1.003922-63.247059-3.011765-16.062745-2.007843-33.129412-3.011765-49.192157-4.015686-16.062745-1.003922-32.12549-3.011765-48.188235-5.019608-10.039216-1.003922-19.07451-3.011765-29.113725-6.023529-12.047059-4.015686-15.058824-9.035294-12.047059-21.082353 2.007843-11.043137 6.023529-21.082353 9.035294-31.121569 7.027451-20.078431 13.05098-41.160784 21.082353-61.239216 11.043137-28.109804 31.121569-45.176471 61.239215-51.2 9.035294-2.007843 18.070588-2.007843 27.105883-2.007843 18.070588-1.003922 36.141176-1.003922 53.207843-1.003921 0 0 42.164706 1.003922 64.25098 1.003921 3.011765 0 6.023529 0 8.031373 1.003922 6.023529 1.003922 8.031373 5.019608 6.023529 10.039215l-6.023529 15.058824c-8.031373 13.05098-15.058824 27.105882-20.078432 41.160784-6.023529 24.094118-9.035294 48.188235-6.023529 72.282353z m274.070588-4.015686c-2.007843 1.003922-4.015686 2.007843-6.023529 2.007843h-20.078431c-1.003922 0-2.007843 0-2.007844 1.003922l-6.023529 15.058823c-1.003922 1.003922-1.003922 3.011765-2.007843 4.015687 0 0 1.003922 0 1.003921 1.003921 5.019608 4.015686 9.035294 9.035294 14.054902 13.05098 5.019608 5.019608 6.023529 13.05098 1.003922 18.070589-6.023529 7.027451-12.047059 13.05098-19.07451 19.07451-5.019608 5.019608-12.047059 4.015686-18.070588-1.003922l-14.054902-14.054902c-1.003922-1.003922-1.003922-1.003922-2.007843 0-6.023529 3.011765-12.047059 5.019608-18.070588 8.031373-1.003922 0-2.007843 1.003922-2.007844 2.007843V752.941176h-54.211764v-20.078431c0-1.003922 0-2.007843-2.007843-2.007843-5.019608-2.007843-10.039216-4.015686-16.062746-7.027451-1.003922 0-2.007843-1.003922-3.011764-2.007843-5.019608 5.019608-9.035294 10.039216-14.054902 15.058823-4.015686 5.019608-11.043137 6.023529-16.062745 3.011765-1.003922-1.003922-2.007843-2.007843-3.011765-2.007843l-17.066667-17.066667c-4.015686-4.015686-5.019608-8.031373-3.011764-13.05098 1.003922-2.007843 2.007843-4.015686 4.015686-5.019608l14.054902-14.054902c1.003922-1.003922 1.003922-1.003922 0-2.007843-3.011765-6.023529-5.019608-12.047059-8.031373-18.070588 0-1.003922-1.003922-1.003922-2.007843-1.003922h-19.07451c-7.027451 0-12.047059-5.019608-13.05098-10.039216-1.003922-2.007843-1.003922-4.015686-1.003922-5.019607v-24.094118c0-6.023529 2.007843-10.039216 7.027451-14.054902 2.007843-2.007843 4.015686-2.007843 6.02353-2.007843h20.078431c1.003922 0 2.007843 0 2.007843-1.003922 2.007843-5.019608 4.015686-11.043137 6.02353-16.062745 0-1.003922 1.003922-2.007843 2.007843-4.015686l-1.003922-1.003922c-5.019608-4.015686-9.035294-9.035294-14.054902-13.05098-6.023529-5.019608-6.023529-13.05098 0-19.07451 6.023529-6.023529 11.043137-12.047059 17.066667-17.066667 6.023529-6.023529 13.05098-5.019608 19.07451 0l14.054902 14.054902c1.003922 1.003922 1.003922 1.003922 2.007843 0 6.023529-3.011765 12.047059-5.019608 18.070588-8.031372 1.003922 0 2.007843-1.003922 2.007843-2.007843v-19.07451c0-7.027451 5.019608-12.047059 10.039216-13.05098 2.007843-1.003922 4.015686-1.003922 6.023529-1.003922h24.094118c6.023529 0 10.039216 2.007843 13.05098 7.027451 1.003922 2.007843 2.007843 4.015686 2.007844 6.023529v20.078432c0 1.003922 0 2.007843 1.003921 2.007843 6.023529 3.011765 13.05098 5.019608 19.07451 8.031372v1.003922l1.003922-1.003922c4.015686-5.019608 9.035294-9.035294 13.05098-14.054902 4.015686-5.019608 11.043137-6.023529 16.062745-2.007843 1.003922 1.003922 2.007843 1.003922 3.011765 2.007843l17.066666 17.066667c4.015686 4.015686 5.019608 8.031373 3.011765 13.050981-1.003922 2.007843-2.007843 4.015686-4.015686 5.019607l-14.054902 14.054902c-1.003922 1.003922-1.003922 1.003922 0 2.007843 3.011765 6.023529 5.019608 12.047059 8.031372 18.070589 1.003922 1.003922 1.003922 2.007843 2.007844 2.007843h19.074509c7.027451 0 11.043137 5.019608 13.050981 10.039216 1.003922 2.007843 1.003922 4.015686 1.003921 6.023529V652.54902c0 5.019608-3.011765 9.035294-7.027451 13.05098z" fill="#1afa29" p-id="23528"></path></svg>