<?xml version="1.0" standalone="no"?><!DOCTYPE svg PUBLIC "-//W3C//DTD SVG 1.1//EN" "http://www.w3.org/Graphics/SVG/1.1/DTD/svg11.dtd"><svg t="1533209001260" class="icon" style="" viewBox="0 0 1024 1024" version="1.1" xmlns="http://www.w3.org/2000/svg" p-id="24356" xmlns:xlink="http://www.w3.org/1999/xlink" width="32" height="32"><defs><style type="text/css"></style></defs><path d="M516.096 806.826667a128.128 128.128 0 0 0 121.322667-88.362667 7.253333 7.253333 0 0 0-3.904-8.896 7.338667 7.338667 0 0 0-9.301334 2.965333c-0.192 0.32-19.690667 31.786667-95.594666 42.048-10.901333 1.514667-21.888 2.282667-32.896 2.325334-53.184-0.042667-76.885333-20.074667-77.098667-20.266667a7.274667 7.274667 0 1 0-11.029333 9.301333c23.168 37.568 64.725333 60.885333 108.501333 60.885334z m408.128-470.4c-0.661333 0-1.28 0.128-1.92 0.128C877.824 144 707.904 0.362667 504.149333 0.362667 294.805333 0.362667 120.96 151.914667 82.432 352.426667a80.576 80.576 0 0 0-65.984 79.509333v159.381333c0 44.672 35.818667 80.896 80.042667 80.896 24.938667 0 46.976-11.797333 61.610666-29.866666a371.925333 371.925333 0 0 0 198.656 208.917333c0.213333-0.448 1.941333-3.84 4.010667-6.506667 1.429333-1.856 3.050667-3.370667 4.416-3.370666 1.429333 0 2.752 0.512 3.882667 1.322666-21.12-15.722667-97.344-96.469333-113.856-209.216-7.253333-49.621333 29.909333-98.325333 73.194666-106.368 69.482667-12.928 138.602667-27.690667 208.064-40.384 44.181333-8.064 74.368-32.298667 92.842667-72.618666 4.309333-9.429333 10.56-28.501333 13.418667-56a8.618667 8.618667 0 0 1 8.426666-7.232c2.858667 0 5.290667 1.472 6.890667 3.562666l1.941333-1.194666c27.370667 39.765333 81.685333 127.808 89.472 220.629333 8.96 106.133333 3.968 178.816-77.269333 253.162667a6.656 6.656 0 0 0-2.133333 4.864c0 2.282667 1.216 4.245333 2.986666 5.44 0.661333 0.277333 1.344 0.64 2.005334 0.917333 0.554667 0.128 1.088 0.298667 1.621333 0.298667 0.554667 0 1.045333-0.170667 1.514667-0.298667 1.173333-0.618667 2.24-1.322667 3.370666-1.941333a371.413333 371.413333 0 0 0 174.314667-211.733334 82.090667 82.090667 0 0 0 51.690667 34.496c-34.389333 156.416-173.909333 254.314667-346.730667 269.162667a70.762667 70.762667 0 0 0-65.792-43.946667c-39.104 0-70.826667 30.976-70.826667 69.141334 0 38.186667 31.701333 69.12 70.826667 69.12a70.378667 70.378667 0 0 0 67.093333-48.085334c200.064-16.277333 360.448-135.189333 393.92-319.936a81.621333 81.621333 0 0 0 50.346667-75.264v-161.258666c0.021333-45.056-36.8-81.6-82.176-81.6z m-73.813333 46.314666c-52.16-141.333333-187.370667-242.304-346.453334-242.304-158.4 0-293.12 100.117333-345.770666 240.533334-2.624-3.2-5.696-5.952-8.704-8.725334C179.306667 201.109333 326.570667 70.997333 504.149333 70.997333c176.746667 0 323.562667 128.832 354.346667 298.773334a80.448 80.448 0 0 0-8.085333 12.970666zM356.778667 851.264c-0.042667 0.064-0.042667 0.085333 0 0z m0 0" fill="" p-id="24357"></path></svg>