<?xml version="1.0" standalone="no"?><!DOCTYPE svg PUBLIC "-//W3C//DTD SVG 1.1//EN" "http://www.w3.org/Graphics/SVG/1.1/DTD/svg11.dtd"><svg t="1533212614408" class="icon" style="" viewBox="0 0 1026 1024" version="1.1" xmlns="http://www.w3.org/2000/svg" p-id="26028" xmlns:xlink="http://www.w3.org/1999/xlink" width="32.0625" height="32"><defs><style type="text/css"></style></defs><path d="M514.327273 346.763636c-34.909091 0-62.836364 27.927273-62.836364 62.836364 0 34.909091 27.927273 62.836364 62.836364 62.836364 34.909091 0 62.836364-27.927273 62.836363-62.836364 0-34.909091-27.927273-62.836364-62.836363-62.836364zM975.127273 51.2H53.527273C25.6 51.2 2.327273 74.472727 2.327273 102.4v658.618182c0 27.927273 23.272727 51.2 51.2 51.2h256L232.727273 1005.381818l307.2-195.490909h435.2c27.927273 0 51.2-23.272727 51.2-51.2V100.072727c0-27.927273-23.272727-48.872727-51.2-48.872727z m0 677.236364c0 13.963636-11.636364 25.6-25.6 25.6H514.327273l-153.6 100.072727 39.563636-100.072727H79.127273c-13.963636 0-25.6-11.636364-25.6-25.6V125.672727c0-13.963636 11.636364-25.6 25.6-25.6h870.4c13.963636 0 25.6 11.636364 25.6 25.6v602.763637z m-225.745455-381.672728c-34.909091 0-62.836364 27.927273-62.836363 62.836364 0 34.909091 27.927273 62.836364 62.836363 62.836364 34.909091 0 62.836364-27.927273 62.836364-62.836364 0-34.909091-27.927273-62.836364-62.836364-62.836364z m-470.109091 0c-34.909091 0-62.836364 27.927273-62.836363 62.836364 0 34.909091 27.927273 62.836364 62.836363 62.836364 34.909091 0 65.163636-27.927273 65.163637-62.836364-2.327273-34.909091-30.254545-62.836364-65.163637-62.836364z" fill="#ffffff" p-id="26029"></path></svg>