<?xml version="1.0" standalone="no"?><!DOCTYPE svg PUBLIC "-//W3C//DTD SVG 1.1//EN" "http://www.w3.org/Graphics/SVG/1.1/DTD/svg11.dtd"><svg t="1533213709706" class="icon" style="" viewBox="0 0 1024 1024" version="1.1" xmlns="http://www.w3.org/2000/svg" p-id="26841" xmlns:xlink="http://www.w3.org/1999/xlink" width="32" height="32"><defs><style type="text/css"></style></defs><path d="M961.702094 667.470434C893.269167 600.633609 711.612664 447.407696 711.612664 447.407696l-0.598538-259.067511h95.466926c26.335704 0 47.783341-21.048612 47.783342-47.085046V47.085046c0-26.036434-21.347881-47.085046-47.783342-47.085046H236.572431c-26.335704 0-47.484072 21.148368-47.484073 47.085046v94.170093c0 26.036434 21.148368 47.085046 47.484073 47.085046h94.968144V447.407696S184.200292 572.003507 109.183439 641.733268c-9.975645 9.27735-19.053483 17.956162-27.033999 25.737166-18.5547 17.756649-12.3698 38.905017 7.88076 38.905017h402.317779V985.094983c0 16.260302 13.267608 29.428154 29.727423 29.428154 16.360058 0 29.727423-13.167852 29.727423-29.428154V706.475207h402.01851c20.350317 0 26.634973-21.148368 7.880759-39.004773" p-id="26842" fill="#8a8a8a"></path></svg>