<?xml version="1.0" standalone="no"?><!DOCTYPE svg PUBLIC "-//W3C//DTD SVG 1.1//EN" "http://www.w3.org/Graphics/SVG/1.1/DTD/svg11.dtd"><svg t="1533213756814" class="icon" style="" viewBox="0 0 1024 1024" version="1.1" xmlns="http://www.w3.org/2000/svg" p-id="27691" xmlns:xlink="http://www.w3.org/1999/xlink" width="32" height="32"><defs><style type="text/css"></style></defs><path d="M410.722836 0H81.913608A81.925031 81.925031 0 0 0 0.000011 81.947899v327.082685a81.913597 81.913597 0 0 0 81.925031 81.913597h328.797794a81.925031 81.925031 0 0 0 81.925031-81.913597V81.947899A81.925031 81.925031 0 0 0 410.722836 0z m531.34071 0H614.386291a81.913597 81.913597 0 0 0-81.913597 81.947899v327.082685a81.913597 81.913597 0 0 0 81.925031 81.913597h327.665821a81.913597 81.913597 0 0 0 81.925031-81.913597V81.947899A81.925031 81.925031 0 0 0 942.063546 0z m-531.34071 532.449814H81.913608A81.913597 81.913597 0 0 0 0.000011 614.397713v327.677256a81.925031 81.925031 0 0 0 81.925031 81.925031h328.797794a81.925031 81.925031 0 0 0 81.925031-81.925031V614.397713a81.925031 81.925031 0 0 0-81.925031-81.947899z m531.34071 0H614.386291a81.913597 81.913597 0 0 0-81.925031 81.913597v327.711558a81.913597 81.913597 0 0 0 81.925031 81.925031h327.677255a81.925031 81.925031 0 0 0 81.925031-81.925031V614.397713a81.913597 81.913597 0 0 0-81.925031-81.947899z" p-id="27692" fill="#8a8a8a"></path></svg>