<?xml version="1.0" standalone="no"?><!DOCTYPE svg PUBLIC "-//W3C//DTD SVG 1.1//EN" "http://www.w3.org/Graphics/SVG/1.1/DTD/svg11.dtd"><svg t="1533213885513" class="icon" style="" viewBox="0 0 1024 1024" version="1.1" xmlns="http://www.w3.org/2000/svg" p-id="32622" xmlns:xlink="http://www.w3.org/1999/xlink" width="32" height="32"><defs><style type="text/css"></style></defs><path d="M928 113.7v796.4c0 27.5-22.3 49.8-49.8 49.8H197.5c-27.5 0-49.8-22.3-49.8-49.8v-100h-24.9c-13.7 0-24.9-11.1-24.9-24.9v-199c0-13.7 11.1-24.9 24.9-24.9h24.9v-99.1h-24.9c-13.7 0-24.9-11.1-24.9-24.9V238.2c0-13.7 11.1-24.9 24.9-24.9h24.9v-99.6c0-27.5 22.3-49.8 49.8-49.8h680.7c27.5 0 49.8 22.3 49.8 49.8zM760.2 281.6V232c0-13.8-11.2-25-25-25h-398c-13.8 0-25 11.2-25 25v49.6c0 13.8 11.2 25 25 25h398c13.8 0 25-11.2 25-25z m0 205.3v-49.6c0-13.8-11.2-25-25-25h-398c-13.8 0-25 11.2-25 25v49.6c0 13.8 11.2 25 25 25h398c13.8 0 25-11.1 25-25z" p-id="32623" fill="#8a8a8a"></path></svg>