<?xml version="1.0" standalone="no"?><!DOCTYPE svg PUBLIC "-//W3C//DTD SVG 1.1//EN" "http://www.w3.org/Graphics/SVG/1.1/DTD/svg11.dtd"><svg t="1533214266319" class="icon" style="" viewBox="0 0 1024 1024" version="1.1" xmlns="http://www.w3.org/2000/svg" p-id="41279" xmlns:xlink="http://www.w3.org/1999/xlink" width="32" height="32"><defs><style type="text/css"></style></defs><path d="M637.1 632.5c20.1 20.9 53.9 45.9 98.2 65.5 102.1 38.7 191.5 99.6 191.5 166.3V957.1H96.2V864.3c0-66.8 89.4-127.6 190.4-165.9 45.9-20.2 79.2-45 99.3-65.9l5.8-5.2c0.5-0.4 2-6.3 0.7-13.4 0.9 4.7 3.2 9 6.6 12.3-24.4-23.9-46.6-88.1-60.5-154.4 1.7 7.9 7.3 14.3 15 17.1-52-18.4-63.3-58.9-61.1-100.8 0-8.3 1-16 2.9-23l10.1-35.8L342 325c-5.7 0.7-22.1 10.3-22.8 2.9-6.5-67-3.3-113.8 9.6-146.3 14.8-37.5 39.4-54 70.1-59.4-10.7 1.9-18.6 10.9-19.1 21.7 1.9-40.9 29.4-62.3 64.2-71.5 14.8-3.9 29.4-5.2 42.7-5.2 31.1 0 49.1 3.5 79 13 15.1 4.7 92.5 49.1 87 45.3 49 33.9 52.9 61.1 48.8 223.2 0.2-6.2-6.4-22 0.6-21.1 5.5 0.7 16.4 2 16.4 2l9.6 36.6c1.8 7 2.7 14.7 2.7 21 2.5 42-9.5 83.6-61 101.9 7.6-2.7 13.3-9.2 14.9-17.1-13.8 65.6-36.5 130.8-60.5 154.4 3.4-3.3 5.7-7.6 6.5-12.3-1.3 7 0.2 13 0.7 13.3l5.7 5.1z" p-id="41280" fill="#8a8a8a"></path></svg>