<?xml version="1.0" standalone="no"?><!DOCTYPE svg PUBLIC "-//W3C//DTD SVG 1.1//EN" "http://www.w3.org/Graphics/SVG/1.1/DTD/svg11.dtd"><svg t="1533267114063" class="icon" style="" viewBox="0 0 1024 1024" version="1.1" xmlns="http://www.w3.org/2000/svg" p-id="2229" xmlns:xlink="http://www.w3.org/1999/xlink" width="64" height="64"><defs><style type="text/css"></style></defs><path d="M402.752 146.752l-320 320c-24.992051 24.992051-24.992051 65.504051 0 90.496l320 320c24.992051 24.992051 65.504051 24.992051 90.496 0 24.992051-24.992051 24.992051-65.504051 0-90.496l-210.752-210.752 613.504 0c35.360051 0 64-28.640051 64-64 0-35.360051-28.640051-64-64-64l-613.504 0 210.752-210.752c12.48-12.512051 18.752-28.864 18.752-45.248s-6.240051-32.768-18.752-45.248c-24.992051-24.992051-65.504051-24.992051-90.496 0z" p-id="2230" fill="#1296db"></path></svg>