<?xml version="1.0" standalone="no"?><!DOCTYPE svg PUBLIC "-//W3C//DTD SVG 1.1//EN" "http://www.w3.org/Graphics/SVG/1.1/DTD/svg11.dtd"><svg t="1533279113932" class="icon" style="" viewBox="0 0 1024 1024" version="1.1" xmlns="http://www.w3.org/2000/svg" p-id="2144" xmlns:xlink="http://www.w3.org/1999/xlink" width="32" height="32"><defs><style type="text/css"></style></defs><path d="M361 411.5c27.9 0 50.5 22.6 50.5 50.5s-22.6 50.5-50.5 50.5-50.5-22.6-50.5-50.5 22.6-50.5 50.5-50.5z m161.3 0c27.7 0 50.2 22.6 50.2 50.5s-22.4 50.5-50.2 50.5c-27.7 0-50.2-22.6-50.2-50.5s22.5-50.5 50.2-50.5z m161.3 0c27.9 0 50.5 22.6 50.5 50.5s-22.6 50.5-50.5 50.5-50.5-22.6-50.5-50.5 22.6-50.5 50.5-50.5zM895.1 263c-0.7-76.8-60.6-134.5-137.5-134.7-163.9-0.4-327.9-0.4-491.8 0-74.9 0.2-135.5 57-136.5 131.9-1.8 128.5-1.7 257.2-0.1 385.7 0.9 77.9 59.8 133.2 137.9 133.5 90 0.3 180-1.6 269.8 1.2 25.2 0.8 52.4 10.3 74.4 23.3 44.9 26.6 86.8 58.2 136.4 92.2V783c97.1-13.1 146.5-58.9 147.3-137.9 1.4-127.4 1.3-254.7 0.1-382.1z" fill="#1296db" p-id="2145"></path></svg>