<?xml version="1.0" standalone="no"?><!DOCTYPE svg PUBLIC "-//W3C//DTD SVG 1.1//EN" "http://www.w3.org/Graphics/SVG/1.1/DTD/svg11.dtd"><svg t="1533280556934" class="icon" style="" viewBox="0 0 1024 1024" version="1.1" xmlns="http://www.w3.org/2000/svg" p-id="27385" xmlns:xlink="http://www.w3.org/1999/xlink" width="32" height="32"><defs><style type="text/css"></style></defs><path d="M934.443823 920.661424c-3.044336-50.725288-21.541619-93.678566-54.982242-127.668705-30.569226-31.06246-68.257593-49.735751-101.089349-63.901379-12.955056-5.593392-25.711592-10.748808-38.048571-15.735379-19.623943-7.933693-38.160111-15.426341-53.431933-23.078625-20.161179-10.101055-32.168654-19.516496-37.465287-29.435403-1.677199-21.668509-1.731434-39.247886-1.62808-60.106959 1.792832-1.566682 3.75758-3.50994 5.562692-5.995551 5.79703-7.987928 11.649318-18.025539 17.388019-29.829376 7.822153-16.062837 14.024411-35.039028 18.126846-55.353702 5.033643-2.178619 11.289114-5.588275 16.61133-12.372795 12.372795-15.781428 19.968797-36.640502 23.219841-63.760163 2.394537-19.863397-1.551332-37.45096-12.044314-53.487192 14.182001-48.886407 19.747763-94.390787 16.542768-135.367037-2.843768-36.464493-13.098319-67.13605-30.477129-91.163279-17.781992-24.584931-45.743834-42.349527-79.205946-50.455135-23.401989-26.338878-61.516052-39.684838-113.421212-39.684838l-0.954745 0.00307c-96.623641 1.780553-166.477592 40.784892-196.692754 109.832478-22.632463 51.725058-24.013927 118.777197-4.181229 204.797339-11.244089 16.237823-15.494902 34.487465-12.977569 55.519478 3.26537 27.143197 10.862395 48.000224 23.220864 63.763233 5.51255 7.031137 12.0525 10.43056 17.291828 12.574387 4.270257 21.185508 10.365068 39.761586 18.163685 55.330166 5.536087 11.05273 11.776208 21.35947 18.039865 29.792537 1.778506 2.4017 3.701299 4.300956 5.455245 5.841032 0.091074 20.594037-0.005117 38.181601-1.639337 59.617819-5.28026 10.301623-17.270339 19.869536-37.431517 29.927613-15.210423 7.591909-33.753755 15.029298-53.384861 22.904663-12.568247 5.039783-25.564235 10.254551-38.71986 15.909341-33.168424 14.253632-71.191412 32.988322-101.723799 63.890122-33.446763 33.857109-51.956326 76.81755-55.013965 127.71373l-2.354628 40.052205 849.602018 0L934.443823 920.661424zM152.595932 902.725936c5.725398-28.670993 16.388249-51.614541 33.535791-68.969814 21.574365-21.839401 51.051723-38.20002 82.893942-51.885717 31.836079-13.68672 65.411779-24.509207 94.90858-39.23356 29.500894-14.724353 56.766888-34.06791 68.337411-65.172325l0.633427-2.529613 0.632403-2.534729c3.075035-33.936927 1.901303-57.997925 1.901303-87.319741l0-12.020778-10.760065-5.695722c1.849114 0.970094-2.506077-1.811252-6.324032-6.956436-3.823072-5.151323-8.457626-12.493545-12.658298-20.883633-8.399297-16.769942-15.237029-38.344307-17.08512-55.679114l-1.896186-16.452717-17.084097-1.264806c-0.154519-0.014326-2.051729 0.215918-5.696746-4.431939-3.6399-4.643764-8.361435-14.917758-10.756995-34.802644-2.012843-16.818037 6.571672-22.673395 5.697769-22.143323l13.285584-8.227382-3.795443-14.553461c-19.062148-73.363891-22.360264-140.081409-2.52859-185.396477 19.773346-45.184085 60.069097-73.591065 144.264685-75.293847 0.25685 0 0.382717-0.005117 0.63445 0 40.766472 0.145309 67.144236 12.105712 74.665537 25.305339l5.059226 8.224312 9.490142 1.270946c28.163433 3.910053 44.296879 15.258519 55.685253 31.002085 11.383258 15.742543 17.7165 37.71702 19.614733 62.008262 3.793396 48.585555-10.17678 105.124246-18.98233 131.612527l-5.064342 15.819291 13.922081 8.227382c-0.873903-0.531096 7.719822 5.329379 5.692652 22.143323-2.38021 19.884886-7.116071 30.15888-10.755971 34.802644-3.640923 4.64274-5.542226 4.417613-5.695722 4.431939l-17.08512 1.264806-1.89721 16.452717c-1.877767 17.517979-8.921183 38.905078-17.084097 55.679114-4.078899 8.390088-8.308223 15.766079-12.020778 20.883633-3.712555 5.112438-7.636934 7.974625-5.695722 6.956436l-10.755971 5.695722 0 12.020778c0 29.312606-1.177825 53.377698 1.89721 87.319741l0 2.534729 1.264806 2.529613c11.562337 31.074739 38.301328 50.447972 67.706031 65.172325 29.40368 14.729469 63.206554 25.546839 94.913697 39.23356 31.706119 13.680581 60.773132 30.05041 82.255399 51.885717 17.075911 17.350157 27.830859 40.285518 33.536814 68.969814L152.595932 902.724913z" p-id="27386" fill="#1296db"></path></svg>