<?xml version="1.0" standalone="no"?><!DOCTYPE svg PUBLIC "-//W3C//DTD SVG 1.1//EN" "http://www.w3.org/Graphics/SVG/1.1/DTD/svg11.dtd"><svg t="1533297246630" class="icon" style="" viewBox="0 0 1024 1024" version="1.1" xmlns="http://www.w3.org/2000/svg" p-id="40100" xmlns:xlink="http://www.w3.org/1999/xlink" width="32" height="32"><defs><style type="text/css"></style></defs><path d="M512.143274 0a511.692984 511.692984 0 1 0 511.692984 511.692984 511.692984 511.692984 0 0 0-511.692984-511.692984z m0 989.98265A478.084989 478.084989 0 1 1 990.228263 511.897661a478.084989 478.084989 0 0 1-478.084989 478.044054zM183.186088 545.464721c0 382.214191 621.359025 393.430502 636.668879 0H183.186088zM254.618429 337.103338a88.256806 88.256806 0 0 0 17.76598 53.911973 55.876874 55.876874 0 0 0 42.941276 22.350749 55.876874 55.876874 0 0 0 42.941275-22.350749 90.671997 90.671997 0 0 0 0-107.864881A55.876874 55.876874 0 0 0 315.202878 260.79968a55.876874 55.876874 0 0 0-42.777533 22.268879 88.256806 88.256806 0 0 0-17.765981 53.952908z m378.038777 0a88.21587 88.21587 0 0 0 17.76598 53.911973 52.397362 52.397362 0 0 0 85.964421 0 90.671997 90.671997 0 0 0 0-107.864881 52.438297 52.438297 0 0 0-85.964421 0 88.256806 88.256806 0 0 0-17.76598 53.952908z m0 0" p-id="40101" fill="#8a8a8a"></path></svg>