<?xml version="1.0" standalone="no"?><!DOCTYPE svg PUBLIC "-//W3C//DTD SVG 1.1//EN" "http://www.w3.org/Graphics/SVG/1.1/DTD/svg11.dtd"><svg t="1533298077017" class="icon" style="" viewBox="0 0 1024 1024" version="1.1" xmlns="http://www.w3.org/2000/svg" p-id="41769" xmlns:xlink="http://www.w3.org/1999/xlink" width="32" height="32"><defs><style type="text/css"></style></defs><path d="M512 1005.568c-271.872 0-493.568-221.184-493.568-493.568 0-271.872 221.184-493.568 493.568-493.568S1005.568 239.616 1005.568 512c0 271.872-221.696 493.568-493.568 493.568z m0-973.312c-264.704 0-479.744 215.552-479.744 479.744s215.552 479.744 479.744 479.744c264.704 0 479.744-215.552 479.744-479.744s-215.04-479.744-479.744-479.744z" fill="#8a8a8a" p-id="41770"></path><path d="M796.672 481.28h-254.464v-253.952h-60.416v253.952h-254.464v60.928h254.464v254.464h60.416v-254.464h254.464z" fill="#8a8a8a" p-id="41771"></path></svg>