<?xml version="1.0" standalone="no"?><!DOCTYPE svg PUBLIC "-//W3C//DTD SVG 1.1//EN" "http://www.w3.org/Graphics/SVG/1.1/DTD/svg11.dtd"><svg t="1533311156937" class="icon" style="" viewBox="0 0 1416 1024" version="1.1" xmlns="http://www.w3.org/2000/svg" p-id="1646" xmlns:xlink="http://www.w3.org/1999/xlink" width="44.25" height="32"><defs><style type="text/css"></style></defs><path d="M512.201087 761.027981c-66.212963 0-128.461641-25.784221-175.281947-72.604527-46.819283-46.819283-72.604527-109.068984-72.604527-175.280924s25.784221-128.461641 72.604527-175.281947 109.068984-72.604527 175.281947-72.604527 128.461641 25.784221 175.280924 72.604527c46.820306 46.819283 72.604527 109.068984 72.604527 175.281947s-25.784221 128.461641-72.604527 175.280924C640.663752 735.242737 578.41405 761.027981 512.201087 761.027981zM512.201087 285.452008c-125.548291 0-227.690523 102.141208-227.690523 227.690523 0 125.549315 102.141208 227.690523 227.690523 227.690523 125.549315 0 227.690523-102.141208 227.690523-227.690523C739.89161 387.593216 637.750402 285.452008 512.201087 285.452008z" p-id="1647" fill="#1296db"></path><path d="M944.057369 397.26345l-45.368236 0c-8.539482-22.482015-19.410053-48.256003-29.45584-70.08822l36.170769-37.163375c14.816436-15.221665 22.816636-35.364404 22.527041-56.716691-0.288572-21.352286-8.831124-41.270922-24.053812-56.086335l-61.137369-59.505197c-31.519847-30.67869-82.122289-29.995122-112.804048 1.526771l-32.792838 33.692324c-20.73114-10.660794-45.063291-21.995945-65.867086-30.849582L631.27595 80.961861c0-43.985751-35.786006-79.771757-79.771757-79.771757l-85.315001 0c-43.985751 0-79.771757 35.786006-79.771757 79.771757l0 42.828392c-22.015388 8.504689-47.401543 19.354794-68.950304 29.238899l-31.074709-29.618546c-15.376184-14.655777-35.605904-22.455409-56.948981-21.9325-21.348193 0.512676-41.176778 9.261935-55.831532 24.639143l-58.862561 61.756469c-14.655777 15.376184-22.445176 35.600788-21.9325 56.948981 0.512676 21.348193 9.261935 41.176778 24.639143 55.832555l29.060844 27.698825c-9.183141 21.468943-18.991521 46.877611-26.785014 68.933931l-39.976441 0.008186c-21.241769 0.004093-41.254549 8.324588-56.351371 23.427549-15.095798 15.102961-23.408106 35.119834-23.404013 56.361604l0.018419 85.313978c0.004093 21.242793 8.324588 41.255572 23.427549 56.351371 15.099891 15.093752 35.108578 23.404013 56.344207 23.404013 0.005117 0 0.01228 0 0.017396 0l43.607128-0.00921c7.144717 19.218695 16.057705 40.72243 24.389456 59.552269l-28.177732 28.176709c-15.020074 15.020074-23.292473 35.053319-23.292473 56.406629 0 21.355356 8.272399 41.387579 23.292473 56.406629l60.326911 60.328958c15.552192 15.551169 35.979411 23.326242 56.406629 23.326242 20.428242 0 40.856483-7.775073 56.407652-23.327265l30.90484-30.905864c19.587085 8.413615 42.448746 17.151618 62.774657 24.316801l0 47.801656c0 43.985751 35.786006 79.771757 79.771757 79.771757l85.315001 0c43.985751 0 79.771757-35.786006 79.771757-79.771757l0-46.217579c19.375261-6.763024 41.153242-14.995514 60.138623-22.896454l34.837402 34.836379c15.020074 15.021097 35.053319 23.293496 56.406629 23.293496 21.355356 0 41.387579-8.272399 56.407652-23.292473l60.326911-60.326911c31.102338-31.103361 31.102338-81.71092 0-112.813258l-35.570089-35.571112c8.835217-18.630294 18.079756-39.964161 25.676774-59.118388l54.527841 0c43.985751 0 79.771757-35.786006 79.771757-79.771757l0-85.315001C1023.829126 433.048433 988.044143 397.26345 944.057369 397.26345zM983.438247 562.349184c0 21.714536-17.666341 39.380877-39.380877 39.380877l-57.973309 0 0 0.100284-10.68126-1.121542c-7.488547-2.600219-15.376184 1.055028-17.883282 8.312308-9.798147 28.358857-25.009579 65.08221-38.78122 91.360688-3.490494 6.660694-1.032515 15.193012 5.577013 19.486801l10.061137 9.013272 36.48697 36.489017c15.354694 15.354694 15.354694 40.337668 0 55.692362l-60.326911 60.327935c-7.391333 7.392357-17.280555 11.462042-27.846181 11.462042-10.564603 0-20.454848-4.070708-27.846181-11.463065l-42.104916-42.103892-0.039909 0.049119-3.564172-3.63171c-3.440352-6.767117-11.309569-9.482969-17.859746-6.139831-25.592863 13.060444-64.229797 29.143732-91.182633 38.129375-6.831585 2.277877-10.80201 9.797124-9.09309 17.148548l-0.00921 8.991783-0.073678 0 0 50.394711c0 21.714536-17.666341 39.380877-39.380877 39.380877l-85.315001 0c-21.714536 0-39.380877-17.666341-39.380877-39.380877l0-47.857937 1.002839-13.107516c2.618638-7.50492-1.002839-15.313762-8.237607-17.704203-28.268806-9.341753-68.882766-26.868925-95.061983-40.204638-6.636134-3.379977-15.15822-0.801248-19.464288 5.852282l-6.537897 8.916058-34.331889 34.332913c-15.353671 15.355718-40.338691 15.354694-55.693385 0.001023l-60.326911-60.328958c-7.391333-7.391333-11.462042-17.280555-11.462042-27.846181 0-10.564603 4.070708-20.454848 11.462042-27.845158l36.935178-36.934154-0.066515-0.066515 2.054797-1.990329c7.228628-3.036147 10.482738-10.719122 7.361658-17.438144-12.195751-26.251872-25.734079-62.751121-33.615576-90.123512-1.997492-6.938009-9.605766-11.327989-17.348093-10.050904l-7.813958-0.017396 0-0.062422-55.894976 0.01228c-0.00307 0-0.005117 0-0.008186 0-10.449993 0-20.318748-4.11164-27.788876-11.579722-7.472175-7.470128-11.588931-17.34093-11.592001-27.792969l-0.018419-85.315001c-0.004093-21.714536 17.658154-39.38497 39.372691-39.389064l63.469481-0.01228-0.028653-0.163729c4.909818-0.752129 9.071601-4.066615 10.638281-9.072624 8.904802-28.462211 25.766825-72.429542 38.714705-98.827746 3.28174-6.691393 0.550538-15.225758-6.199183-19.490894l-6.552223-5.83591-34.483339-32.866516c-7.566319-7.212255-11.87341-17.001193-12.12719-27.563749-0.25378-10.562556 3.579522-20.545922 10.790753-28.113264l58.863585-61.756469c7.212255-7.567342 17.001193-11.87341 27.563749-12.12719 10.54823-0.254803 20.545922 3.578498 28.113264 10.790753l41.964723 39.99793 0.024559-0.025583c4.084011 5.361096 11.478414 7.237838 17.6909 4.162806 26.78706-13.261012 70.43205-31.705065 98.69574-40.925045 6.117318-1.995445 9.982342-7.775073 9.816567-13.964023l0.091074 0.011256L426.813432 80.961861c0-21.714536 17.666341-39.380877 39.380877-39.380877l85.315001 0c21.714536 0 39.380877 17.666341 39.380877 39.380877l0 56.068938c-1.129729 6.566549 2.43956 13.20473 8.831124 15.718991 27.815482 10.940156 69.783275 29.880512 95.596148 44.628386 6.543013 3.738134 14.867601 1.719153 19.014034-4.574174l5.533011-6.326073 39.01965-39.076956c15.14594-15.560379 40.126867-15.900116 55.689292-0.754176l61.137369 59.505197c7.490594 7.29105 11.694332 17.123989 11.837595 27.688592 0.143263 10.564603-3.793392 20.508059-11.083419 27.998653l-37.040578 38.008625-10.244308 8.443291c-7.27263 3.806695-10.150164 12.431112-6.506174 19.573782 14.239292 27.906556 31.99466 71.339722 41.850113 100.760769 2.497888 7.457848 10.629071 11.750614 18.54229 9.83294l13.57005-0.805341 47.426103 0c21.714536 0 39.380877 17.666341 39.380877 39.380877L983.443363 562.349184z" p-id="1648" fill="#1296db"></path><path d="M407.521059 139.563479" p-id="1649" fill="#1296db"></path><path d="M611.988693 142.521855" p-id="1650" fill="#1296db"></path><path d="M841.837367 324.42254" p-id="1651" fill="#1296db"></path><path d="M878.877945 614.27476" p-id="1652" fill="#1296db"></path><path d="M697.94019 845.862029" p-id="1653" fill="#1296db"></path><path d="M611.988693 881.607102" p-id="1654" fill="#1296db"></path><path d="M407.521059 882.936376" p-id="1655" fill="#1296db"></path><path d="M316.503178 845.716719" p-id="1656" fill="#1296db"></path><path d="M171.409758 701.650697" p-id="1657" fill="#1296db"></path><path d="M134.518582 614.27476" p-id="1658" fill="#1296db"></path><path d="M132.566116 409.807125" p-id="1659" fill="#1296db"></path><path d="M317.536716 175.288087" p-id="1660" fill="#1296db"></path><path d="M1394.745537 607.834077" p-id="1661" fill="#1296db"></path></svg>