<?xml version="1.0" standalone="no"?><!DOCTYPE svg PUBLIC "-//W3C//DTD SVG 1.1//EN" "http://www.w3.org/Graphics/SVG/1.1/DTD/svg11.dtd"><svg t="1533311493813" class="icon" style="" viewBox="0 0 1071 1024" version="1.1" xmlns="http://www.w3.org/2000/svg" p-id="2385" xmlns:xlink="http://www.w3.org/1999/xlink" width="33.46875" height="32"><defs><style type="text/css"></style></defs><path d="M1061.682977 966.498569l-244.33456-230.517469 2.326109-2.791331a444.705647 444.705647 0 0 0 102.023171-282.343192c0-248.335469-206.651583-450.427877-460.616238-450.427877C207.070283 0.4187 0.372178 202.511108 0.372178 450.846577s206.698105 450.427877 460.709281 450.427877c111.281087 0 218.840398-39.590387 302.766435-111.327609l2.791332-2.32611 243.729771 227.912226h2.465677v2.000454a36.008178 36.008178 0 0 0 20.702376 6.466585 36.194267 36.194267 0 0 0 36.519922-35.729045 34.100768 34.100768 0 0 0-8.373995-21.772386z m-600.601518-136.821771c-213.676435 0-387.483349-169.89905-387.483349-378.830221 0-208.884649 173.806915-378.783699 387.483349-378.783699 213.58339 0 387.390305 169.89905 387.390305 378.783699 0 208.931171-173.806915 378.830221-387.390305 378.830221z" p-id="2386" fill="#1296db"></path></svg>