<?xml version="1.0" standalone="no"?><!DOCTYPE svg PUBLIC "-//W3C//DTD SVG 1.1//EN" "http://www.w3.org/Graphics/SVG/1.1/DTD/svg11.dtd"><svg t="1533365673221" class="icon" style="" viewBox="0 0 1024 1024" version="1.1" xmlns="http://www.w3.org/2000/svg" p-id="25538" xmlns:xlink="http://www.w3.org/1999/xlink" width="32" height="32"><defs><style type="text/css"></style></defs><path d="M563.344986 664.535104c0 55.894542 45.395567 101.290108 101.290108 101.290108S765.925203 720.429646 765.925203 664.535104s-45.395567-101.290108-101.290109-101.290108c-55.894542-0.09999-101.290108 45.295577-101.290108 101.290108z m11.998828-85.491651c-7.599258-7.899229-11.998828-16.79836-11.998828-27.197344-0.299971-22.697783 55.09462-45.595547 56.894444-113.788888-0.299971-1.599844 0-68.293331 0-68.293331-0.699932-108.989357-97.090519-113.788888-113.588908-113.788888-15.998438 0-112.788985 4.799531-113.588907 113.788888 0.399961 5.899424 0.399961 66.493506 0 68.293331 2.199785 67.89337 57.394395 91.091104 56.894444 113.788888 0.499951 57.094424-132.987013 69.693194-170.483351 102.390001-29.197149 31.596914-22.697783 79.692218-22.697784 79.692217h304.270286c-12.79875-19.598086-20.198028-43.095791-20.198027-68.29333-0.19998-33.696709 12.998731-64.093741 34.496631-86.591544z m-63.393809 444.956547C229.27761 1024 0 794.72239 0 511.950005S229.27761 0 511.950005 0s511.950005 229.27761 511.950005 511.950005-229.177619 512.049995-511.950005 512.049995z m141.686163-371.163754v-31.996875c0-5.899424 4.799531-10.598965 10.598965-10.598965 5.899424 0 10.598965 4.799531 10.598965 10.598965v31.996875h31.996876c5.899424 0 10.598965 4.799531 10.598964 10.598965s-4.799531 10.598965-10.598964 10.598965h-31.996876v31.996876c0 5.899424-4.799531 10.598965-10.598965 10.598965-5.899424 0-10.598965-4.799531-10.598965-10.598965v-31.996876h-31.996875c-5.899424 0-10.598965-4.799531-10.598965-10.598965s4.799531-10.598965 10.598965-10.598965h31.996875z" p-id="25539" fill="#17bb84"></path></svg>