<?xml version="1.0" standalone="no"?><!DOCTYPE svg PUBLIC "-//W3C//DTD SVG 1.1//EN" "http://www.w3.org/Graphics/SVG/1.1/DTD/svg11.dtd"><svg t="1533401740154" class="icon" style="" viewBox="0 0 1024 1024" version="1.1" xmlns="http://www.w3.org/2000/svg" p-id="2952" xmlns:xlink="http://www.w3.org/1999/xlink" width="32" height="32"><defs><style type="text/css"></style></defs><path d="M516.096 776.192c4.608 0 9.216-0.512 13.824-1.024 44.032-5.12 80.896-35.84 94.72-78.336 1.024-3.072-0.512-6.656-3.584-7.68-3.072-1.536-6.656 0-8.192 2.56 0 0.512-17.408 28.672-85.504 37.376-10.24 1.536-19.968 2.048-29.184 2.048-47.616 0-68.608-17.92-69.12-17.92-2.56-2.048-6.144-2.048-8.704 0s-3.072 5.632-1.536 8.192c20.992 33.792 58.368 54.784 97.28 54.784z m365.056-420.864h-1.536c-39.936-172.032-191.488-300.544-373.76-300.544-187.392 0-342.528 135.68-376.832 314.88-33.28 6.144-58.88 35.328-58.88 71.168v142.336c0 39.936 32.256 72.192 71.68 72.192 22.528 0 41.984-10.752 55.296-26.624 31.744 83.456 96.256 151.04 177.664 186.88 0-0.512 1.536-3.584 3.584-5.632 1.536-1.536 2.56-3.072 4.096-3.072 1.024 0 2.56 0.512 3.584 1.024-18.944-13.824-87.04-86.016-101.888-186.88-6.656-44.544 26.624-88.064 65.536-95.232 61.952-11.776 123.904-24.576 185.856-35.84 39.424-7.168 66.56-28.672 82.944-65.024 4.096-8.192 9.216-25.6 11.776-50.176 0.512-3.584 3.584-6.656 7.68-6.656 2.56 0 4.608 1.536 6.144 3.072l1.536-1.024c24.576 35.328 73.216 114.176 79.872 197.12 8.192 94.72 3.584 159.744-69.12 226.304l-0.512 0.512c-1.024 1.024-1.536 2.56-1.536 4.096 0 2.048 1.024 3.584 2.56 4.608 0.512 0 1.024 0.512 2.048 1.024 0.512 0 1.024 0.512 1.536 0.512 0.512 0 1.024 0 1.536-0.512l3.072-1.536c73.216-40.448 129.536-108.032 155.648-189.44 10.752 15.872 27.136 27.136 46.08 30.72-30.72 139.776-155.648 227.328-309.76 240.64-9.216-23.04-32.256-39.424-58.88-39.424-34.816 0-63.488 27.648-63.488 61.952 0 34.304 28.16 61.952 63.488 61.952 28.16 0 51.712-17.92 59.904-43.008 178.688-14.336 322.048-120.832 352.256-286.208 26.624-11.264 45.056-36.864 45.056-67.072V428.544c-1.024-40.448-33.792-73.216-74.24-73.216z m-66.048 41.472c-46.592-126.464-167.424-216.576-309.76-216.576-141.824 0-262.144 89.6-309.248 215.04-2.56-3.072-5.12-5.12-7.68-7.68C215.04 234.496 346.624 118.272 505.344 118.272c158.208 0 289.28 115.2 316.928 267.264-2.56 3.584-5.12 7.168-7.168 11.264zM373.76 815.616z" p-id="2953" fill="#ffffff"></path></svg>