<?xml version="1.0" standalone="no"?><!DOCTYPE svg PUBLIC "-//W3C//DTD SVG 1.1//EN" "http://www.w3.org/Graphics/SVG/1.1/DTD/svg11.dtd"><svg t="1533402114010" class="icon" style="" viewBox="0 0 1024 1024" version="1.1" xmlns="http://www.w3.org/2000/svg" p-id="8278" xmlns:xlink="http://www.w3.org/1999/xlink" width="32" height="32"><defs><style type="text/css"></style></defs><path d="M316.723 813.978h400.794c28.62 0 53.145-16.794 65.075-41.012H251.648c11.93 24.27 36.454 41.012 65.075 41.012zM717.517 226.458H316.723c-40.243 0-72.857 32.87-72.857 73.42v432.077h546.508V299.93c0-40.55-32.614-73.472-72.857-73.472z m-323.38 47.82c0-3.788 3.073-6.86 6.81-6.86h218.624c3.789 0 6.81 3.072 6.81 6.86v27.341a6.807 6.807 0 0 1-6.81 6.81H400.947a6.807 6.807 0 0 1-6.81-6.81v-27.34zM685.62 681.933c-20.121 0-36.454-16.333-36.454-36.455 0-20.121 16.333-36.403 36.454-36.403 20.122 0 36.455 16.333 36.455 36.403 0 20.122-16.333 36.455-36.455 36.455z m50.125-134.349c0 3.789-3.072 6.81-6.86 6.81H305.305a6.807 6.807 0 0 1-6.81-6.81V342.63a6.807 6.807 0 0 1 6.81-6.81h423.577c3.789 0 6.861 3.073 6.861 6.81v204.954z" p-id="8279" fill="#ffffff"></path></svg>