<?xml version="1.0" standalone="no"?><!DOCTYPE svg PUBLIC "-//W3C//DTD SVG 1.1//EN" "http://www.w3.org/Graphics/SVG/1.1/DTD/svg11.dtd"><svg t="1533402167198" class="icon" style="" viewBox="0 0 1024 1024" version="1.1" xmlns="http://www.w3.org/2000/svg" p-id="8730" xmlns:xlink="http://www.w3.org/1999/xlink" width="32" height="32"><defs><style type="text/css"></style></defs><path d="M448 341.76H151.04c-23.04 0-42.24 19.2-42.24 42.24v106.24c0 23.04 19.2 42.24 42.24 42.24H448c23.04 0 42.24-19.2 42.24-42.24V384c0-23.04-17.92-42.24-42.24-42.24z m0 232.96H193.28c-23.04 0-42.24 19.2-42.24 42.24v254.72c0 23.04 20.48 42.24 43.52 42.24H448c23.04 0 42.24-19.2 42.24-42.24l1.28-254.72c-1.28-23.04-19.2-42.24-43.52-42.24zM320 108.8c-24.32-1.28-70.4 21.76-84.48 42.24-51.2 71.68-12.8 170.24 148.48 170.24 69.12 0 126.72-60.16 126.72-84.48 1.28-25.6-76.8-124.16-190.72-128z m131.84 126.72c-2.56 15.36-32 35.84-87.04 35.84-62.72 0-111.36-29.44-107.52-78.08 2.56-28.16 40.96-39.68 62.72-39.68 103.68 0 133.12 75.52 131.84 81.92z m421.12 106.24H576c-23.04 0-42.24 19.2-42.24 42.24v106.24c0 23.04 19.2 42.24 42.24 42.24h296.96c23.04 0 42.24-19.2 42.24-42.24V384c0-23.04-19.2-42.24-42.24-42.24zM636.16 320C793.6 320 830.72 222.72 780.8 151.04c-14.08-19.2-58.88-42.24-81.92-42.24-110.08 3.84-186.88 102.4-186.88 126.72 0 24.32 56.32 84.48 124.16 84.48z m61.44-166.4c21.76 0 58.88 11.52 61.44 39.68 3.84 48.64-43.52 78.08-103.68 78.08-53.76 0-81.92-20.48-84.48-35.84-1.28-6.4 26.88-81.92 126.72-81.92z m133.12 421.12H576c-23.04 0-42.24 19.2-42.24 42.24v254.72c0 23.04 19.2 42.24 43.52 42.24h252.16c23.04 0 42.24-19.2 42.24-42.24l1.28-254.72c0-23.04-19.2-42.24-42.24-42.24z m0 0" fill="#ffffff" p-id="8731"></path></svg>