<?xml version="1.0" standalone="no"?><!DOCTYPE svg PUBLIC "-//W3C//DTD SVG 1.1//EN" "http://www.w3.org/Graphics/SVG/1.1/DTD/svg11.dtd"><svg t="1533405180609" class="icon" style="" viewBox="0 0 1024 1024" version="1.1" xmlns="http://www.w3.org/2000/svg" p-id="40679" xmlns:xlink="http://www.w3.org/1999/xlink" width="32" height="32"><defs><style type="text/css"></style></defs><path d="M904 232v638c0 49.706-40.294 90-90 90H210c-49.706 0-90-40.294-90-90V232v112c130.667 74.667 261.333 112 392 112 130.667 0 261.333-37.333 392-112V232z" fill="#ffffff" p-id="40680"></path><path d="M210 64h604c49.706 0 90 40.294 90 90v134c-130.667 74.667-261.333 112-392 112-130.667 0-261.333-37.333-392-112V154c0-49.706 40.294-90 90-90z" fill="#ffffff" p-id="40681"></path></svg>