<?xml version="1.0" standalone="no"?><!DOCTYPE svg PUBLIC "-//W3C//DTD SVG 1.1//EN" "http://www.w3.org/Graphics/SVG/1.1/DTD/svg11.dtd"><svg t="1533517051327" class="icon" style="" viewBox="0 0 1173 1024" version="1.1" xmlns="http://www.w3.org/2000/svg" p-id="2290" xmlns:xlink="http://www.w3.org/1999/xlink" width="36.65625" height="32"><defs><style type="text/css"></style></defs><path d="M969.258667 372.117333a429.184 429.184 0 0 1-3.626667 34.154667c-28.501333 197.077333-184.746667 340.181333-371.562667 340.181333h-60.906666l-11.157334 11.562667c41.962667 77.866667 119.957333 128.64 207.637334 128.64h60.48l119.68 124.864c7.808 8.106667 18.218667 12.309333 28.928 12.309333 5.056 0 10.133333-0.853333 14.912-2.901333a39.893333 39.893333 0 0 0 25.024-37.034667V881.706667c111.424-23.146667 193.898667-127.765333 193.898666-254.208 0.128-129.066667-88.277333-236.16-203.306666-255.402667z" p-id="2291" fill="#d81e06"></path><path d="M908.48 398.016c2.773333-19.370667 4.202667-36.736 4.202667-53.248C912.682667 155.093333 769.728 0.853333 594.069333 0.853333H318.72C143.061333 0.853333 0.106667 155.093333 0.106667 344.768c0 170.325333 112.554667 310.826667 263.338666 338.88v144.981333a46.570667 46.570667 0 0 0 46.592 46.592c12.586667 0 24.746667-5.056 33.706667-14.314666l164.8-172.053334h85.525333c157.866667 0 290.112-122.24 314.410667-290.837333z m-678.314667-159.573333H677.973333c12.586667 0 22.72 10.688 22.72 24s-10.133333 24.021333-22.72 24.021333H230.165333c-12.586667 0-22.72-10.709333-22.72-24.021333 0-13.162667 10.282667-24.021333 22.72-24.021334zM498.986667 461.226667H230.165333c-12.586667 0-22.72-10.709333-22.72-24.021334 0-13.290667 10.133333-24 22.72-24H498.986667c12.586667 0 22.72 10.709333 22.72 24 0.128 13.312-10.133333 24.021333-22.72 24.021334z" p-id="2292" fill="#d81e06"></path></svg>