<?xml version="1.0" standalone="no"?><!DOCTYPE svg PUBLIC "-//W3C//DTD SVG 1.1//EN" "http://www.w3.org/Graphics/SVG/1.1/DTD/svg11.dtd"><svg t="1533517229956" class="icon" style="" viewBox="0 0 1024 1024" version="1.1" xmlns="http://www.w3.org/2000/svg" p-id="5922" xmlns:xlink="http://www.w3.org/1999/xlink" width="32" height="32"><defs><style type="text/css"></style></defs><path d="M904.835214 887.812195c31.743022 31.743022 76.797635 62.97406 108.540657 94.717082 15.359527 15.359527 4.607858 40.958738-16.895479 40.958739h-0.511985c-156.15519 0-326.133955-0.511984-482.289145 0-60.926123 0-121.340263-10.239685-177.658528-32.255007-182.266386-71.677792-295.414901-203.769724-328.693876-398.323731C-32.095928 358.4205 91.292271 147.994981 287.894216 51.741946 491.66394-47.582995 745.608119-3.552351 901.251325 180.761972c163.32297 192.506071 163.834954 466.417634 1.535952 661.483626-11.263653 13.31159-10.239685 33.278975 2.047937 45.566597M511.631325 440.337977h219.641235c7.679763 0 15.359527-0.511984 23.03929-2.047937 19.455401-3.58389 34.302943-18.943417 36.350881-37.886833 2.047937-19.967385-9.215716-40.958738-27.647149-46.590565-10.239685-3.071905-22.015322-4.095874-32.76699-4.095874H291.99009c-7.679763 0-15.359527 0.511984-23.03929 1.535953-31.231038 5.119842-47.102549 38.910802-31.231038 66.045965 11.263653 18.943417 28.671117 23.03929 48.638501 23.039291h225.273062m-87.037319 144.379553c-46.078581 0-92.157162-0.511984-138.235743 0-8.191748 0-16.89548 0.511984-24.575243 3.071905-19.455401 6.655795-32.255007 28.159133-29.183101 47.10255 3.58389 23.551275 22.015322 39.422786 48.126518 39.422785 95.741051 0.511984 190.970118 0.511984 286.711169-0.511984 12.287622 0 26.111196-6.655795 35.326912-14.847543 13.823574-11.775637 15.871511-29.183101 9.215716-46.07858-7.167779-17.919448-20.991353-28.159133-40.958738-28.671117-48.638502 0.511984-97.788988 0.511984-146.42749 0.511984" p-id="5923" fill="#d81e06"></path></svg>