<?xml version="1.0" standalone="no"?><!DOCTYPE svg PUBLIC "-//W3C//DTD SVG 1.1//EN" "http://www.w3.org/Graphics/SVG/1.1/DTD/svg11.dtd"><svg t="1533365919221" class="icon" style="" viewBox="0 0 1024 1024" version="1.1" xmlns="http://www.w3.org/2000/svg" p-id="25829" xmlns:xlink="http://www.w3.org/1999/xlink" width="32" height="32"><defs><style type="text/css"></style></defs><path d="M341.3 704h64c11.8 0 21.3 9.6 21.3 21.3v64c0 11.8-9.6 21.3-21.3 21.3h-64c-11.8 0-21.3-9.6-21.3-21.3v-64c0-11.7 9.6-21.3 21.3-21.3zM704 597.3h42.7c11.8 0 21.3 9.6 21.3 21.3v42.7c0 11.8-9.6 21.3-21.3 21.3H704c-11.8 0-21.3-9.6-21.3-21.3v-42.7c0-11.7 9.5-21.3 21.3-21.3z m-362.7-64h64c11.8 0 21.3 9.6 21.3 21.3v64c0 11.8-9.6 21.3-21.3 21.3h-64c-11.8 0-21.3-9.6-21.3-21.3v-64c0-11.7 9.6-21.3 21.3-21.3z m0-170.6h64c11.8 0 21.3 9.6 21.3 21.3v64c0 11.8-9.6 21.3-21.3 21.3h-64c-11.8 0-21.3-9.6-21.3-21.3v-64c0-11.8 9.6-21.3 21.3-21.3zM832 917.4V480.1L618.7 341.4v576H832z m-640 0h362.7V106.8L192 298.8v618.6z m-64 0V298.8c0-22.1 11.4-42.6 30.1-54.3l362.7-192c42.6-26.6 97.9 4 97.9 54.3v161.5c10 3.9 21.6 10.2 34.9 19.5l213.3 138.7c18.2 11.8 29.1 32 29.1 53.7v437.3h42.7c11.8 0 21.3 9.6 21.3 21.3v21.3c0 11.8-9.6 21.3-21.3 21.3H85.3c-11.8 0-21.3-9.6-21.3-21.3v-21.3c0-11.8 9.6-21.3 21.3-21.3H128z" p-id="25830" fill="#1296db"></path></svg>