<?xml version="1.0" standalone="no"?><!DOCTYPE svg PUBLIC "-//W3C//DTD SVG 1.1//EN" "http://www.w3.org/Graphics/SVG/1.1/DTD/svg11.dtd"><svg t="1533445134753" class="icon" style="" viewBox="0 0 1024 1024" version="1.1" xmlns="http://www.w3.org/2000/svg" p-id="1732" xmlns:xlink="http://www.w3.org/1999/xlink" width="32" height="32"><defs><style type="text/css"></style></defs><path d="M406.784 92.032H160.938667c-32.170667 0-68.864 37.717333-68.864 69.717333v243.84c0 32 35.541333 69.717333 67.712 69.717334h245.802666c32.170667 0 68.864-36.522667 68.864-68.522667v-246.186667c0-32-35.498667-68.565333-67.669333-68.565333m456.96 0h-245.76c-32.213333 0-68.906667 37.717333-68.906667 69.717333v243.84c0 32 35.498667 69.717333 67.712 69.717334h245.802667c32.170667 0 68.906667-36.522667 68.906667-68.522667v-246.186667c0-32-35.541333-68.565333-67.754667-68.565333m-456.96 456.106667H160.938667c-32.170667 0-68.864 37.717333-68.864 69.717333v243.925333c0 32 35.541333 69.717333 67.712 69.717334h245.802666c32.170667 0 68.864-36.522667 68.864-68.522667v-246.229333c0-32.085333-35.498667-68.608-67.669333-68.608m456.96 0.042666h-245.76c-32.213333 0-68.906667 37.76-68.906667 69.76v243.84c0 32 35.498667 69.76 67.712 69.76h245.802667c32.170667 0 68.906667-36.522667 68.906667-68.522666v-246.229334c0-32.042667-35.541333-68.608-67.754667-68.608z" fill="#348ef5" p-id="1733"></path></svg>