<?xml version="1.0" standalone="no"?><!DOCTYPE svg PUBLIC "-//W3C//DTD SVG 1.1//EN" "http://www.w3.org/Graphics/SVG/1.1/DTD/svg11.dtd"><svg t="1533370640701" class="icon" style="" viewBox="0 0 1024 1024" version="1.1" xmlns="http://www.w3.org/2000/svg" p-id="27893" xmlns:xlink="http://www.w3.org/1999/xlink" width="32" height="32"><defs><style type="text/css"></style></defs><path d="M415.485 78.963l15.143-14.542c13.783 13.622 28.075 28.893 42.407 46.06 10.106 11.282 18.947 24.257 28.928 37.076 8.898 13.522 19.016 26.992 27.397 41.981 18.101 29.242 33.809 61.914 47.333 96.587 13.725 34.636 24.065 71.777 30.967 110.051 7.045 38.243 10.781 77.729 10.001 117.202-0.601 39.441-4.526 78.902-12.602 117.024-8.17 38.087-19.766 74.831-33.885 109.327-14.199 34.494-31.659 66.316-49.81 95.5-2.682 4.051-5.221 7.88-7.558 11.416-8.746 13.666-15.451 22.223-15.451 22.223s14.896 2.904 29.998 5.32c14.869 2.331 30.033 4.216 30.033 4.216-49.661 34.747-102.171 61.788-155.168 81.174 22.402-49.688 36.751-100.119 43.549-149.165 0 0 8.885 11.37 17.472 23.177 8.413 11.634 16.426 23.643 16.426 23.643s6.507-8.281 14.957-21.52c2.27-3.42 4.725-7.128 7.325-11.044 17.561-28.264 34.477-59.062 48.217-92.445 13.656-33.387 24.88-68.945 32.791-105.802 7.814-36.885 11.601-75.074 12.189-113.254 0.766-38.21-2.862-76.467-9.687-113.487-6.676-37.053-16.677-73-29.969-106.511-13.086-33.548-28.271-65.173-45.804-93.468-8.092-14.518-17.917-27.537-26.509-40.632-9.681-12.401-18.211-24.976-28.006-35.884C442.429 106.723 428.717 92.057 415.485 78.963L415.485 78.963z" p-id="27894" fill="#bfbfbf"></path></svg>