<?xml version="1.0" standalone="no"?><!DOCTYPE svg PUBLIC "-//W3C//DTD SVG 1.1//EN" "http://www.w3.org/Graphics/SVG/1.1/DTD/svg11.dtd"><svg t="1533373405953" class="icon" style="" viewBox="0 0 1024 1024" version="1.1" xmlns="http://www.w3.org/2000/svg" p-id="44529" xmlns:xlink="http://www.w3.org/1999/xlink" width="32" height="32"><defs><style type="text/css"></style></defs><path d="M679.273213 177.112814c7.269567 29.209252 7.982812 31.639604 7.30743 61.639872-0.26913 11.568477-6.901177 65.032132-5.107321 81.440847 1.482771 13.515828 4.857635 14.594393 10.19827 25.739221 9.274224 19.396769 6.169513 46.13883 2.603291 65.708538-1.947352 10.700713-6.074346 25.931602-12.339026 34.664497-6.903224 9.641591-20.72809 9.698896-26.819832 20.938891-8.810666 16.177448-3.837398 38.888705-9.390881 56.357566-6.303566 19.801998-22.364357 21.188578-23.559579 47.121204 7.866155 1.098008 15.71389 2.236947 23.559579 3.354398 7.885598 16.736173 22.308075 50.436716 37.037545 60.578704 12.340049 3.374864 24.680099 6.748704 37.020148 10.104125 43.265386 17.73799 91.310635 38.946011 134.654816 57.224306 39.485293 16.657378 86.723154 22.596647 100.990089 63.97301 0 28.091802 2.660596 94.454232 1.928932 131.280975L97.600387 897.238968c-0.732687-36.826743 1.908466-103.189174 1.908466-131.280975 14.267958-41.376363 61.524239-47.314609 100.991112-63.97301 43.342134-18.278295 91.408873-39.486316 134.654816-57.224306 12.340049-3.355421 24.698518-6.729262 37.037545-10.104125 14.730493-10.141988 29.151947-43.842531 37.018102-60.578704l17.527189-4.261047c-3.971451-22.135136-17.680684-23.851221-23.387663-39.503712-2.236947-23.561625-4.471848-47.14167-6.708795-70.703295 0.096191 1.119497-16.119119-2.949168-18.258852-4.279467-22.847357-14.326287-23.309892-72.514547-25.507954-96.692203-1.00284-11.066033 14.363126-20.128433 10.103102-40.412408-25.064862-118.728078 10.835789-174.295652 67.559699-192.727443 39.390125-15.963577 112.945375-45.540196 181.545776-3.354398l17.004279 15.771195 27.552519 4.762467C670.461523 150.660348 679.273213 177.112814 679.273213 177.112814z" p-id="44530" fill="#1296db"></path></svg>