<?xml version="1.0" standalone="no"?><!DOCTYPE svg PUBLIC "-//W3C//DTD SVG 1.1//EN" "http://www.w3.org/Graphics/SVG/1.1/DTD/svg11.dtd"><svg t="1533365174621" class="icon" style="" viewBox="0 0 1024 1024" version="1.1" xmlns="http://www.w3.org/2000/svg" p-id="11830" xmlns:xlink="http://www.w3.org/1999/xlink" width="32" height="32"><defs><style type="text/css"></style></defs><path d="M969.452852 863.684505H863.38151c-7.542882-28.17656-13.43979-49.225231-32.922486-63.929001h129.037984V742.924392c-4.249934-2.939954-10.051843-6.280902-14.766769-8.278871-1.869971-0.799988-4.122936-1.869971-5.897908-2.828956L734.597522 620.342307a64.048999 64.048999 0 0 1-33.099483-50.791206 63.999 63.999 0 0 1 24.197622-55.585132c55.154138-43.391322 73.692849-139.011828 73.692849-189.067046V189.913033c0-47.003266-84.736676-125.986031-177.080234-125.986032-46.220278 0-88.828612 15.614756-122.518085 41.841346-25.059608-7.990875-54.051155-8.022875-80.373744-9.653849C465.555726 42.145341 544.811487 0 622.308276 0c119.273136 0 241.008234 100.558429 241.008235 189.914033v134.98489c0 64.822987-23.317636 180.48418-98.097468 239.314261l204.234809 111.474258s53.971157 22.215653 53.971157 54.004157v80.005749c0 29.806534-24.197622 53.987156-53.971157 53.987157zM639.601006 349.079546v134.967891c0 64.838987-20.312683 180.50118-95.108514 239.33126L745.737348 834.852955s53.971157 22.214653 53.971157 54.003157v80.996734c0 29.806534-24.196622 54.003156-53.971157 54.003156H54.515148c-29.742535 0-53.939157-24.196622-53.939157-54.003156v-80.996734c0-29.966532 53.939157-54.003156 53.939157-54.003157l206.454774-111.97025c-75.578819-60.588053-100.51043-179.86119-100.510429-238.835268v-134.967891c0-89.355604 121.895095-188.907048 241.136232-188.907049 119.274136 0 238.004281 99.551445 238.004281 188.907049z m-63.928001 0c0-47.003266-81.747723-124.980047-174.07628-124.980048-90.649584 0-177.207231 79.063765-177.207231 124.980048v134.967891c0 50.791206 22.965641 145.963719 76.568804 188.955047a63.97 63.97 0 0 1 23.685629 55.586132c-1.90197 21.319667-14.383775 40.274371-33.210481 50.471211L84.975672 891.030078c-1.437978 0.814987-2.923954 1.533976-4.425931 2.220965-5.049921 2.316964-11.459821 6.184903-16.046749 9.524851v57.152107h671.277511v-57.839096c-4.251934-2.939954-10.052843-6.279902-14.767769-8.278871-1.869971-0.814987-4.122936-1.869971-5.896908-2.827956l-201.246855-111.475258a64.032 64.032 0 0 1-33.081483-50.790206 63.999 63.999 0 0 1 24.196622-55.586132c55.154138-43.391322 70.688895-139.011828 70.688895-189.083045v-134.967891z" fill="#1296db" p-id="11831"></path></svg>