<?xml version="1.0" standalone="no"?><!DOCTYPE svg PUBLIC "-//W3C//DTD SVG 1.1//EN" "http://www.w3.org/Graphics/SVG/1.1/DTD/svg11.dtd"><svg t="1533467154667" class="icon" style="" viewBox="0 0 1024 1024" version="1.1" xmlns="http://www.w3.org/2000/svg" p-id="13165" xmlns:xlink="http://www.w3.org/1999/xlink" width="32" height="32"><defs><style type="text/css"></style></defs><path d="M451.141422 880.565217c-12.257162-16.822131-24.515347-33.651424-37.682227-51.716872-58.222029 22.666232-74.40971 13.344936-81.387635-51.578726-45.610804 12.406564-75.66019 14.524808-83.078137-61.458747-10.029424 2.227738-20.989033 8.17724-29.754674 5.854335-15.923668-4.227278-36.437887-9.595542-44.055378-21.51092-7.613398-11.891841-8.952906-39.676651-0.617054-47.89073 43.193755-42.559305 31.384801-77.06212-5.868661-114.850771-7.931646-8.037047-3.900843-27.869744-5.383614-42.271756 3.740184-1.149173 7.487531-2.292206 11.229762-3.441379 15.939017 19.606547 30.658254 40.410362 48.319495 58.31208 9.165754 9.299807 23.227004 18.192338 35.624359 19.017122 31.257911 2.080382 45.74895 18.011212 46.332235 47.025013 0.425695 21.190625 9.826809 26.294876 29.451776 31.225165 15.269775 3.835352 32.621978 19.150152 38.996153 33.755802 8.636704 19.794835 18.576077 28.401864 39.432081 33.117258 13.680581 3.093455 25.524327 17.011442 36.722366 27.637454 10.913561 10.346649 19.010983 23.705911 30.084179 33.833573 11.973706 10.957563 25.529443 20.38119 39.21207 29.197996 10.194176 6.566556 21.451568 14.687514 32.676214 15.420201 8.842389 0.578168 21.267373-7.107885 26.423813-14.896268 2.898003-4.365424-3.39533-19.094894-9.611915-24.448832-21.23258-18.298761-44.859697-33.822316-66.213028-51.994188-5.609765-4.76963-6.308683-15.308661-9.258874-23.198352 8.573259 0.450255 19.224854-2.222621 25.38311 1.86958 38.981826 25.869181 77.149101 52.979632 115.210975 80.202647 17.815761 12.738116 36.236296 20.590967 51.598168-0.596588 15.489786-21.36868 5.51255-38.553061-14.180977-52.511981-39.885406-28.264741-79.827093-56.513108-118.502951-86.37523-7.726985-5.969968-9.900487-19.128663-14.637372-28.980032 10.061147 1.763157 22.11774 0.575098 29.847795 5.789866 45.695738 30.81482 90.37431 63.11855 135.39569 94.926999 5.094018 3.596921 10.007935 7.486508 15.272845 10.812253 16.480346 10.42749 33.425274 14.603603 46.799886-3.694135 13.684674-18.732643 7.821129-35.366486-9.886161-48.345078-52.837392-38.768979-105.810884-77.345576-158.729118-116.001991-5.876847-4.291746-13.153578-7.631818-17.129122-13.278421-3.532453-5.02341-3.384074-12.635785-4.855588-19.10922 5.804193-1.296529 12.388145-4.966105 17.2335-3.368724 8.616238 2.847861 16.564257 8.343015 24.116257 13.68365 53.490262 37.84698 107.000989 75.668377 160.084998 114.075105 20.712741 14.982226 40.757263 22.25384 60.563354 0.030699 16.97665-19.056008 14.027481-41.006949-10.048867-62.199621C738.052944 514.951215 649.677151 437.430654 560.4602 360.892467c-35.574217-30.520107-86.072331-14.31196-98.854449 31.137161-11.963473 42.532699-36.543288 72.996524-79.631642 83.308381-15.613606 3.730974-34.839483-0.716314-50.409087-6.667863-7.351432-2.812045-15.120372-18.753109-13.831007-27.424606 4.831029-32.417317 12.642948-64.454988 20.718881-96.287997 4.76042-18.755156 12.122085-36.858466 19.775392-59.606563L269.133112 285.35098c3.231601-31.848359 17.452487-43.290969 45.684482-40.624233 20.629853 1.946328 41.863457 2.51324 62.33265-0.124843 31.289634-4.02671 63.406099-7.746428 92.918249-18.048051 51.387367-17.951861 101.497649-16.412808 153.011906-3.362584 34.087353 8.632611 68.962651 14.161534 102.996792 22.952758 9.336646 2.417049 20.658506 9.720386 24.746614 17.931395 40.765449 81.82868 80.350003 164.245761 119.724779 246.759033 3.294023 6.898107 6.458085 18.088984 3.220345 23.156396-17.312294 27.108405-9.92914 51.505048 0.86674 78.758762 12.992919 32.801057-7.312546 70.109778-43.161009 80.539314-18.533099 5.389754-25.910113 14.116509-30.5549 32.002878-9.766434 37.579897-41.130769 45.728484-74.239841 47.885614-21.455661 55.119365-42.504046 64.689325-98.908684 48.516993-7.121188-2.038426-17.022699 4.191462-25.218358 7.596002-18.413372 7.653307-39.618323 26.254967-54.198389 21.930475-35.626405-10.570753-53.340859 7.151887-72.216765 29.346375C467.80187 880.565217 459.474204 880.565217 451.141422 880.565217L451.141422 880.565217M176.278307 143.431713c19.851117 10.891048 39.500643 22.172999 59.613726 32.552393 16.808828 8.67559 21.834284 19.996426 13.251815 37.817304-46.648436 96.907097-92.91211 193.995319-139.260717 291.038516-9.006118 18.862603-23.497157 22.588461-40.97932 13.506619-22.851451-11.867282-45.053102-24.997324-67.536162-37.579897l0-18.742876c27.866674-53.754275 56.014758-107.371426 83.515089-161.313989 26.643823-52.251038 52.629661-104.833627 78.903048-157.278069C167.949618 143.431713 172.117544 143.431713 176.278307 143.431713L176.278307 143.431713M857.193415 143.431713c10.255575 16.578584 21.811772 32.492018 30.53955 49.837058 42.460044 84.380806 83.412758 169.523975 126.558417 253.5456 13.820774 26.919093 8.322549 40.814568-18.71627 53.116755-65.705468 29.9051-65.340147 30.809703-97.496521-34.790364-39.751353-81.090876-79.012541-162.418137-119.386064-243.191788-11.561313-23.122627-9.686616-38.366819 15.809057-49.545416 17.58347-7.717775 33.521464-19.176758 50.194192-28.971845L857.193415 143.431713 857.193415 143.431713M857.193415 143.431713 857.193415 143.431713z" p-id="13166" fill="#ffffff"></path></svg>